<?xml version="1.0" standalone="no"?>
<svg xmlns:xlink="http://www.w3.org/1999/xlink" id="wave" style="transform:rotate(0deg); transition: 0.3s" viewBox="0 0 1440 240" version="1.1" xmlns="http://www.w3.org/2000/svg"><defs><linearGradient id="sw-gradient-0" x1="0" x2="0" y1="1" y2="0"><stop stop-color="rgba(0, 117, 128, 1)" offset="0%"/><stop stop-color="rgba(157, 223, 211, 1)" offset="100%"/></linearGradient></defs><path style="transform:translate(0, 0px); opacity:1" fill="url(#sw-gradient-0)" d="M0,24L48,32C96,40,192,56,288,72C384,88,480,104,576,100C672,96,768,72,864,52C960,32,1056,16,1152,36C1248,56,1344,112,1440,120C1536,128,1632,88,1728,84C1824,80,1920,112,2016,112C2112,112,2208,80,2304,60C2400,40,2496,32,2592,56C2688,80,2784,136,2880,160C2976,184,3072,176,3168,160C3264,144,3360,120,3456,124C3552,128,3648,160,3744,148C3840,136,3936,80,4032,56C4128,32,4224,40,4320,48C4416,56,4512,64,4608,72C4704,80,4800,88,4896,108C4992,128,5088,160,5184,172C5280,184,5376,176,5472,180C5568,184,5664,200,5760,176C5856,152,5952,88,6048,56C6144,24,6240,24,6336,36C6432,48,6528,72,6624,76C6720,80,6816,64,6864,56L6912,48L6912,240L6864,240C6816,240,6720,240,6624,240C6528,240,6432,240,6336,240C6240,240,6144,240,6048,240C5952,240,5856,240,5760,240C5664,240,5568,240,5472,240C5376,240,5280,240,5184,240C5088,240,4992,240,4896,240C4800,240,4704,240,4608,240C4512,240,4416,240,4320,240C4224,240,4128,240,4032,240C3936,240,3840,240,3744,240C3648,240,3552,240,3456,240C3360,240,3264,240,3168,240C3072,240,2976,240,2880,240C2784,240,2688,240,2592,240C2496,240,2400,240,2304,240C2208,240,2112,240,2016,240C1920,240,1824,240,1728,240C1632,240,1536,240,1440,240C1344,240,1248,240,1152,240C1056,240,960,240,864,240C768,240,672,240,576,240C480,240,384,240,288,240C192,240,96,240,48,240L0,240Z"/><defs><linearGradient id="sw-gradient-1" x1="0" x2="0" y1="1" y2="0"><stop stop-color="rgba(0, 117, 128, 0.45)" offset="0%"/><stop stop-color="rgba(219, 246, 233, 1)" offset="100%"/></linearGradient></defs><path style="transform:translate(0, 50px); opacity:0.9" fill="url(#sw-gradient-1)" d="M0,192L48,192C96,192,192,192,288,164C384,136,480,80,576,84C672,88,768,152,864,164C960,176,1056,136,1152,104C1248,72,1344,48,1440,56C1536,64,1632,104,1728,132C1824,160,1920,176,2016,172C2112,168,2208,144,2304,144C2400,144,2496,168,2592,180C2688,192,2784,192,2880,164C2976,136,3072,80,3168,52C3264,24,3360,24,3456,56C3552,88,3648,152,3744,176C3840,200,3936,184,4032,184C4128,184,4224,200,4320,196C4416,192,4512,168,4608,156C4704,144,4800,144,4896,152C4992,160,5088,176,5184,172C5280,168,5376,144,5472,144C5568,144,5664,168,5760,180C5856,192,5952,192,6048,188C6144,184,6240,176,6336,180C6432,184,6528,200,6624,172C6720,144,6816,72,6864,36L6912,0L6912,240L6864,240C6816,240,6720,240,6624,240C6528,240,6432,240,6336,240C6240,240,6144,240,6048,240C5952,240,5856,240,5760,240C5664,240,5568,240,5472,240C5376,240,5280,240,5184,240C5088,240,4992,240,4896,240C4800,240,4704,240,4608,240C4512,240,4416,240,4320,240C4224,240,4128,240,4032,240C3936,240,3840,240,3744,240C3648,240,3552,240,3456,240C3360,240,3264,240,3168,240C3072,240,2976,240,2880,240C2784,240,2688,240,2592,240C2496,240,2400,240,2304,240C2208,240,2112,240,2016,240C1920,240,1824,240,1728,240C1632,240,1536,240,1440,240C1344,240,1248,240,1152,240C1056,240,960,240,864,240C768,240,672,240,576,240C480,240,384,240,288,240C192,240,96,240,48,240L0,240Z"/></svg>